<svg width="384" height="328" viewBox="0 0 384 328" fill="none" xmlns="http://www.w3.org/2000/svg">
<g filter="url(#filter0_i_14_164)">
<path d="M77.072 259.026C74.3808 258.751 72.3961 256.386 72.593 253.688L77.7659 182.779C78.0926 178.301 83.6972 176.49 86.5829 179.929L152.14 258.056C155.026 261.495 152.268 266.7 147.802 266.244L77.072 259.026Z" fill="#D9D9D9"/>
</g>
<g filter="url(#filter1_b_14_164)">
<path d="M73.8501 258.915C72.7595 258.813 71.9537 257.853 72.0428 256.762L75.1004 219.265C75.2457 217.483 77.4769 216.773 78.6259 218.142L113.026 259.139C114.175 260.508 113.088 262.582 111.308 262.415L73.8501 258.915Z" fill="#8C8897"/>
</g>
<rect x="280.851" y="10.0888" width="112" height="261.826" transform="rotate(50 280.851 10.0888)" fill="#FECC6C"/>
<g filter="url(#filter2_i_14_164)">
<rect x="281.199" y="9.77411" width="112.574" height="55" transform="rotate(50 281.199 9.77411)" fill="#FF5B99"/>
</g>
<g filter="url(#filter3_d_14_164)">
<rect x="238.609" y="44.1207" width="114.388" height="21.3" transform="rotate(50 238.609 44.1207)" fill="#8392B3"/>
<rect x="238.486" y="45.5296" width="112.388" height="19.3" transform="rotate(50 238.486 45.5296)" stroke="black" stroke-opacity="0.2" stroke-width="2"/>
</g>
<line x1="242.12" y1="83.0322" x2="100.874" y2="203.388" stroke="#696969" stroke-opacity="0.25" stroke-width="2"/>
<line x1="257.254" y1="69.6459" x2="243.06" y2="81.2876" stroke="#696969" stroke-opacity="0.25" stroke-width="3"/>
<line x1="289.168" y1="106.667" x2="274.974" y2="118.308" stroke="#696969" stroke-opacity="0.25" stroke-width="3"/>
<line x1="271.717" y1="118.431" x2="130.47" y2="238.786" stroke="#696969" stroke-opacity="0.25" stroke-width="2"/>
<defs>
<filter id="filter0_i_14_164" x="72.5795" y="178.135" width="80.7436" height="92.1371" filterUnits="userSpaceOnUse" color-interpolation-filters="sRGB">
<feFlood flood-opacity="0" result="BackgroundImageFix"/>
<feBlend mode="normal" in="SourceGraphic" in2="BackgroundImageFix" result="shape"/>
<feColorMatrix in="SourceAlpha" type="matrix" values="0 0 0 0 0 0 0 0 0 0 0 0 0 0 0 0 0 0 127 0" result="hardAlpha"/>
<feOffset dy="4"/>
<feGaussianBlur stdDeviation="2"/>
<feComposite in2="hardAlpha" operator="arithmetic" k2="-1" k3="1"/>
<feColorMatrix type="matrix" values="0 0 0 0 0 0 0 0 0 0 0 0 0 0 0 0 0 0 0.25 0"/>
<feBlend mode="normal" in2="shape" result="effect1_innerShadow_14_164"/>
</filter>
<filter id="filter1_b_14_164" x="68.036" y="213.425" width="49.4633" height="53.0002" filterUnits="userSpaceOnUse" color-interpolation-filters="sRGB">
<feFlood flood-opacity="0" result="BackgroundImageFix"/>
<feGaussianBlur in="BackgroundImageFix" stdDeviation="2"/>
<feComposite in2="SourceAlpha" operator="in" result="effect1_backgroundBlur_14_164"/>
<feBlend mode="normal" in="SourceGraphic" in2="effect1_backgroundBlur_14_164" result="shape"/>
</filter>
<filter id="filter2_i_14_164" x="239.067" y="9.77411" width="114.493" height="125.59" filterUnits="userSpaceOnUse" color-interpolation-filters="sRGB">
<feFlood flood-opacity="0" result="BackgroundImageFix"/>
<feBlend mode="normal" in="SourceGraphic" in2="BackgroundImageFix" result="shape"/>
<feColorMatrix in="SourceAlpha" type="matrix" values="0 0 0 0 0 0 0 0 0 0 0 0 0 0 0 0 0 0 127 0" result="hardAlpha"/>
<feOffset dy="4"/>
<feGaussianBlur stdDeviation="2"/>
<feComposite in2="hardAlpha" operator="arithmetic" k2="-1" k3="1"/>
<feColorMatrix type="matrix" values="0 0 0 0 0 0 0 0 0 0 0 0 0 0 0 0 0 0 0.25 0"/>
<feBlend mode="normal" in2="shape" result="effect1_innerShadow_14_164"/>
</filter>
<filter id="filter3_d_14_164" x="218.293" y="44.1207" width="97.8437" height="109.317" filterUnits="userSpaceOnUse" color-interpolation-filters="sRGB">
<feFlood flood-opacity="0" result="BackgroundImageFix"/>
<feColorMatrix in="SourceAlpha" type="matrix" values="0 0 0 0 0 0 0 0 0 0 0 0 0 0 0 0 0 0 127 0" result="hardAlpha"/>
<feOffset dy="4"/>
<feGaussianBlur stdDeviation="2"/>
<feComposite in2="hardAlpha" operator="out"/>
<feColorMatrix type="matrix" values="0 0 0 0 0 0 0 0 0 0 0 0 0 0 0 0 0 0 0.25 0"/>
<feBlend mode="normal" in2="BackgroundImageFix" result="effect1_dropShadow_14_164"/>
<feBlend mode="normal" in="SourceGraphic" in2="effect1_dropShadow_14_164" result="shape"/>
</filter>
</defs>
</svg>
